<svg xmlns="http://www.w3.org/2000/svg" viewBox="0 0 24 24" id="storemode-sm"><path fill="#E8E8E8" d="m8 22-6-2V5l6 2z"/><path fill="#BBB" d="m8 22 7-2V5L8 7z"/><path fill="#E8E8E8" d="m22 21-7-1V5l7 1z"/><path fill="#C00" d="M15 1.5a5.5 5.5 0 0 1 5.5 5.73q-.03.49-.13.96l-.03.12-.02.08C19.38 12.3 15 16.5 15 16.5s-4.38-4.2-5.32-8.1l-.02-.1-.03-.11A6 6 0 0 1 9.5 7c0-3.03 2.47-5.5 5.5-5.5"/><path fill="#fff" d="M15 10.25a3.25 3.25 0 1 1 0-6.5 3.25 3.25 0 0 1 0 6.5m0-1.08A2.16 2.16 0 0 0 17.17 7 2.16 2.16 0 0 0 15 4.83 2.16 2.16 0 0 0 12.83 7c0 1.2.97 2.17 2.17 2.17m0-1.09A1.1 1.1 0 0 1 13.92 7 1.08 1.08 0 1 1 15 8.08"/></svg>