<svg xmlns="http://www.w3.org/2000/svg" viewBox="0 0 32 32" id="Circle360Pillar"><path fill="#623D94" d="M16 29.33a13.33 13.33 0 1 0 0-26.66 13.33 13.33 0 0 0 0 26.66M16 26a10 10 0 1 1 0-20 10 10 0 0 1 0 20"/><path fill="#C00" d="M18.33 10.67v-1L17.17 8.5h-2.34l-1.16 1.17v1h-3V14H9l.33 1h2.17a.5.5 0 0 1 0 1H8.33l.33 1h2.84a.5.5 0 0 1 0 1H9.67l.33 1h1.5a.5.5 0 0 1 0 1h-.83v2.67h10.66v-12zm-3.5-1h2.34v1h-2.34z"/><path fill="#fff" d="M16 17.55a.89.89 0 1 0 0-1.78.89.89 0 0 0 0 1.78"/><path fill="#fff" d="M18.66 16.67a2.67 2.67 0 1 1-5.33 0 2.67 2.67 0 0 1 5.33 0m-.9 0a1.78 1.78 0 1 0-3.55 0 1.78 1.78 0 0 0 3.56 0"/></svg>