<svg width="315" height="315" viewBox="0 0 315 315" fill="none" xmlns="http://www.w3.org/2000/svg">
<g clip-path="url(#clip0_2043_117244)">
<path d="M157.5 315C244.485 315 315 244.485 315 157.5C315 70.5152 244.485 0 157.5 0C70.5152 0 0 70.5152 0 157.5C0 244.485 70.5152 315 157.5 315Z" fill="#EEEEEE"/>
<path d="M108.511 88.6326V233.77C111.941 237.199 113.864 239.123 117.293 242.552H197.707C201.136 239.123 203.06 237.199 206.489 233.77V88.6326C203.06 85.2033 201.136 83.2797 197.707 79.8504H117.293C113.864 83.2797 111.941 85.2033 108.511 88.6326Z" fill="#D6D6D6"/>
<path d="M197.707 79.8504H117.293L112.487 84.6573H202.514L197.707 79.8504Z" fill="#D6D6D6"/>
<path d="M201.004 72.45H113.994V80.2137H201.004V72.45Z" fill="#D6D6D6"/>
<path d="M206.487 161.2H108.511V233.768H206.487V161.2Z" fill="#005580"/>
<path d="M206.487 88.6326H108.511V161.2H206.487V88.6326Z" fill="white"/>
<path d="M157.5 192.65C174.869 192.65 188.95 178.569 188.95 161.2C188.95 143.831 174.869 129.751 157.5 129.751C140.131 129.751 126.051 143.831 126.051 161.2C126.051 178.569 140.131 192.65 157.5 192.65Z" fill="#FBAB18"/>
<g style="mix-blend-mode:multiply">
<path d="M198.07 80.2137H201.006V72.45H164.415V80.2137L169.898 88.6326V233.77C166.469 237.199 164.546 239.123 161.116 242.552H197.707C201.136 239.123 203.06 237.199 206.489 233.77V88.6326L198.07 80.2137Z" fill="#F0F0F0"/>
</g>
</g>
<defs>
<clipPath id="clip0_2043_117244">
<rect width="315" height="315" fill="white"/>
</clipPath>
</defs>
</svg>
