<svg xmlns="http://www.w3.org/2000/svg" viewBox="0 0 24 24" id="sameday-sm"><path fill="#840000" d="M8.5 2.5 10.25.75h3.5L15.5 2.5z"/><path fill="#C00" d="M8.5 2.5V4H4v5H1.5l.5 1.5h2V12H.5l.5 1.5h3V15H2.5l.5 1.5h1V22h16V4h-4.5V2.5L13.75.75V4h-3.5V.75z"/><path fill="#840000" d="M4 12h1.25a.75.75 0 0 0 0-1.5H4zm0 3h1.25a.75.75 0 0 0 0-1.5H4zm1.25 3H4v-1.5h1.25a.75.75 0 0 1 0 1.5"/><path fill="#fff" d="M12 14.33a1.33 1.33 0 1 0 0-2.66 1.33 1.33 0 0 0 0 2.66"/><path fill="#fff" d="M16 13a4 4 0 1 1-8 0 4 4 0 0 1 8 0m-1.33 0a2.67 2.67 0 1 0-5.34 0 2.67 2.67 0 0 0 5.34 0"/></svg>