<svg xmlns="http://www.w3.org/2000/svg" viewBox="0 0 32 32" id="SameDay"><path fill="#840000" d="M11.33 3.33 13.67 1h4.66l2.34 2.33z"/><path fill="#C00" d="M11.33 3.33v2h-6V12H2l.67 2h2.66v2H.67l.66 2h4v2h-2L4 22h1.33v7.33h21.34v-24h-6v-2L18.33 1v4.33h-4.66V1z"/><path fill="#840000" d="M5.33 16H7a1 1 0 1 0 0-2H5.33zm0 4H7a1 1 0 1 0 0-2H5.33zM7 24H5.33v-2H7a1 1 0 1 1 0 2"/><path fill="#fff" d="M16 19.1a1.78 1.78 0 1 0 0-3.55 1.78 1.78 0 0 0 0 3.56"/><path fill="#fff" d="M21.33 17.33a5.33 5.33 0 1 1-10.66 0 5.33 5.33 0 0 1 10.66 0m-1.77 0a3.56 3.56 0 1 0-7.11 0 3.56 3.56 0 0 0 7.1 0"/></svg>