<svg xmlns="http://www.w3.org/2000/svg" viewBox="0 0 32 32" id="TwoDayShipping"><path fill="#CEAF8C" d="M2.67 24.67h18v-18h-18z"/><path fill="#C00" d="M11.67 17.22a1.56 1.56 0 1 0 0-3.11 1.56 1.56 0 0 0 0 3.11"/><path fill="#C00" d="M16.33 15.67a4.67 4.67 0 1 1-9.33 0 4.67 4.67 0 0 1 9.33 0m-1.55 0a3.11 3.11 0 1 0-6.22 0 3.11 3.11 0 0 0 6.22 0M30 20l-4.67-6.67h-4.66v11.34H30z"/><path fill="#333" d="M8 28a2.67 2.67 0 1 0 0-5.33A2.67 2.67 0 0 0 8 28m16.67 0a2.67 2.67 0 1 0 0-5.33 2.67 2.67 0 0 0 0 5.33"/><path fill="#fff" d="m24.5 15 2.33 3.33h-4.49V15z"/></svg>