<svg xmlns="http://www.w3.org/2000/svg" viewBox="0 0 24 24" id="driveup-sm"><path fill="#333" d="M8.25 18.5h-4v2.11h.01c.04.5.92.9 2 .9 1.07 0 1.95-.4 1.98-.9h.01zm11.5 2.11V18.5h-4v2.11c.04.5.92.9 2 .9s1.95-.4 1.99-.9z"/><path fill="#C00" d="M19 3.8c-3.13-1.73-10.86-1.74-14 0l.16.28c.26.48.83.69 1.34.5 2.9-1 8.09-1 11 0a1.1 1.1 0 0 0 1.34-.5z"/><path fill="#C00" d="M18.53 6.19c-2.86-1.58-10.2-1.59-13.06 0L4.57 9H2v.75c0 1 1.06 1.25 1.75 1.25-1.03 2.45-.72 6.68.5 7.5h15.5c1.1-.82 1.53-5.05.5-7.5.7 0 1.75-.25 1.75-1.25V9h-2.57z"/><path fill="#fff" d="M7 7.47C6 10 5.5 14 6.5 16.75h11c1-2.75.5-6.75-.5-9.28-1.93-.94-8.14-.98-10 0"/><path fill="#840000" d="M5.27 12.85a.32.32 0 0 0-.5-.3c-.77.48-1.29 3.24.08 3.62a.42.42 0 0 0 .52-.47 13 13 0 0 1-.12-2.59zm13.95-.3a.32.32 0 0 0-.48.3c.04.6.08 1.7-.1 2.85-.05.3.23.55.52.47 1.36-.38.84-3.14.06-3.62"/><path fill="#333" d="M10 7.5a1.8 1.8 0 0 0-1.62 1.08l-.88.17a18 18 0 0 0-.28 7h9.56c.38-2.23.26-4.88-.28-7l-.88-.17a1.75 1.75 0 0 0-3.06-.32h-1.12A1.8 1.8 0 0 0 10 7.5"/><path fill="#fff" d="M12 13a1 1 0 1 0 0-2 1 1 0 0 0 0 2"/><path fill="#fff" d="M15 12a3 3 0 1 1-6 0 3 3 0 0 1 6 0m-1 0a2 2 0 1 0-4 0 2 2 0 0 0 4 0"/></svg>