<svg xmlns="http://www.w3.org/2000/svg" viewBox="0 0 32 32" id="OrderPickup"><path fill="#840000" d="M11.33 3.33 13.67 1h4.66l2.34 2.33z"/><path fill="#C00" d="M11.33 5.33v-2L13.67 1v4.33h4.66V1l2.34 2.33v2h6v24H5.33v-24z"/><path fill="#fff" d="M16 14.22a1.56 1.56 0 1 0 0-3.11 1.56 1.56 0 0 0 0 3.11"/><path fill="#fff" d="M20.67 12.67a4.67 4.67 0 1 0-9.34 0 4.67 4.67 0 0 0 9.34 0m-1.56 0a3.11 3.11 0 1 1-6.22 0 3.11 3.11 0 0 1 6.22 0"/><path fill="#D6D6D6" d="M21.33 21.33v1.34H10.67v-1.34S12.67 20 16 20s5.33 1.33 5.33 1.33m-6 2.67v5.33h-4.66V24zm6 5.33V24h-4.66v5.33z"/><path fill="#840000" d="M16 19.33c-3.44 0-5.33 1.26-5.33 1.26v.87S12.56 20.2 16 20.2s5.33 1.24 5.33 1.24v-.87s-1.9-1.24-5.33-1.24"/></svg>