<svg xmlns="http://www.w3.org/2000/svg" viewBox="0 0 24 24" id="CCPA"><path fill="#1A75FF" d="M1.5 12a5 5 0 0 1 5-5h11a5 5 0 0 1 0 10h-11a5 5 0 0 1-5-5"/><path fill="#fff" fill-rule="evenodd" d="M6.5 8h7l-2 8h-5a4 4 0 0 1 0-8m12.44 2.4a.44.44 0 0 0 0-.59.44.44 0 0 0-.59 0l-1.6 1.6-1.6-1.6a.44.44 0 0 0-.6 0 .44.44 0 0 0 0 .58L16.17 12l-1.53 1.6a.44.44 0 0 0 0 .6.44.44 0 0 0 .59 0l1.6-1.62 1.6 1.61a.44.44 0 0 0 .6 0 .44.44 0 0 0 0-.58L17.4 12z" clip-rule="evenodd"/><path fill="#1A75FF" d="M10.34 9.88c.15.14.22.44.08.58l-3.07 3.58c-.07.07-.14.15-.22.15a.5.5 0 0 1-.5-.08L5 12.51a.44.44 0 0 1 0-.59.44.44 0 0 1 .59 0l1.31 1.24 2.8-3.28c.14-.15.43-.15.65 0"/></svg>