<svg xmlns="http://www.w3.org/2000/svg" viewBox="0 0 32 32" id="Circle"><path fill="#288186" d="M16 29.33a13.33 13.33 0 1 0 0-26.66 13.33 13.33 0 0 0 0 26.66"/><path fill="#fff" d="M17.9 2.8a67 67 0 0 0-3.71 5.89h-.01l4.78.59c.38-.65 1.35-3.45 1.82-5.74a13 13 0 0 0-2.88-.75"/><path fill="#BBB" d="M19.37 8.12a7 7 0 0 0-1.67-.29 5 5 0 0 0-1.66.18q.81.21 1.59.38.77.2 1.52.42h.03l.27-.67z"/><path fill="#fff" d="M27.7 9.6c-2.65.84-5.44 2.64-5.44 2.64l-1.54 7.81c3.44.36 6.54-1.66 8.61-4.04v-.02c0-2.32-.59-4.5-1.63-6.4"/><path fill="#BBB" d="M28.25 10.7a5.6 5.6 0 0 0-2.68 1.48l-.13.13-.12.13-.08.09-.15.17-.11.14-.32.43a9 9 0 0 0-.69 1.22 10 10 0 0 0-.77 2.61l-.01.03.01-.03.13-.25q.53-1.09 1.13-2.1.35-.56.74-1.08a8 8 0 0 1 .86-.97 6.4 6.4 0 0 1 2.4-1.5z"/><path fill="#fff" d="M11.73 28.63q.3-.22.61-.49a16 16 0 0 0 3.18-3.42l-2.21-.44v.01s-.33.48-2.03 2.02c-.5.45-1.06.84-1.55 1.2l-.2.14q1.05.6 2.2.98"/><path fill="#E8E8E8" d="M12.4 28.1c.17-.14.54-.44.61-.53-.03-.1.19-.37.22-.46.3-.93-.13-1.02-.24-1.47z"/><path fill="#fff" d="M20.63 28.5a13 13 0 0 1-4.62.82q-1.48 0-2.88-.3a5 5 0 0 1-.3-2.18c.13-1.77 1.1-5.26 1.1-5.26l5.96.4s.45 2.44.77 4.84a5 5 0 0 1-.03 1.68"/><path fill="#E8E8E8" d="M19.83 21.71s-1.48.87-2.24 1.1q-.13.06-.27.1l-.28.1q-.29.07-.57.16l-1.13.32q-.99.28-2.01.54l-.26 1.2h.1q1.31.01 2.56-.34a8 8 0 0 0 2.37-1.04 6 6 0 0 0 1.81-1.77z"/><path fill="#840000" d="m20.17 23.1-.28-1.12-5.96-.39s-.19.68-.4 1.6c1.2.4 3.93.95 6.64-.09"/><path fill="#E8E8E8" d="M20.43 25.27c-.33.13-2.02.6-2.58.67 0 0 2.11.03 2.82 1.03a31 31 0 0 0-.24-1.7"/><path fill="#fff" d="M18.58 23.63a10 10 0 0 0 2.41-.96c1.5-.89 2.85-2.66 3.9-2.14 1.19.6-.3 2.93-3.19 4.23s-5.42 1.36-5.42 1.36"/><path fill="#FFB8D9" d="M24.09 21.03c.07.07.2.05.27-.03q.1-.15 0-.27c-.08-.07-.2-.05-.27.03s-.08.2 0 .27m.15.21a.55.55 0 0 1 .29.73.55.55 0 0 1-.71.32.55.55 0 0 1-.3-.72.55.55 0 0 1 .72-.33m.28-.02c-.07-.06-.07-.18 0-.27.07-.08.2-.1.27-.03s.08.19 0 .27a.2.2 0 0 1-.27.03m.49.16c-.08-.07-.2-.05-.27.03s-.08.2 0 .27.2.05.27-.03q.1-.15 0-.27"/><path fill="#fff" d="M2.54 20.91c1.66 5.31 18.9 6.45 20.87-5.01.16-.94.94-6.95-5.89-7.8-8.54-1.09-16.5 7.93-14.98 12.8"/><path fill="#C00" d="M16 17.65a1.65 1.65 0 1 0 0-3.3 1.65 1.65 0 0 0 0 3.3"/><path fill="#C00" d="M20.95 16a4.95 4.95 0 1 1-9.9 0 4.95 4.95 0 0 1 9.9 0m-1.65 0a3.3 3.3 0 1 0-6.6 0 3.3 3.3 0 0 0 6.6 0"/><path d="M11.86 12.03a1.23 1.23 0 0 1-2.45-.13 1.23 1.23 0 0 1 2.45.13m4.07 5.15a1.23 1.23 0 1 0-1.15-1.29 1.23 1.23 0 0 0 1.15 1.29m-13.4 3.73a5.6 5.6 0 0 1 .2-3.44c1.69.4 4.07 1.24 5.17 3.01 1.23 1.99-1.9 2.89-4.17 2.12q-.88-.75-1.2-1.7m9.11.4q.12-.33.2-.34c.18 0-.07 2.81-2.64 3.7q-.57-.08-1.12-.18A5 5 0 0 0 10.65 23a5 5 0 0 0 1-1.7"/></svg>