<svg width="64" height="64" viewBox="0 0 64 64" fill="none" xmlns="http://www.w3.org/2000/svg">
<path d="M32.0048 3.84003C44.0158 3.84003 53.76 13.6473 53.76 25.7423C53.76 27.9418 53.4377 30.0657 52.8382 32.0687C52.0162 34.815 50.1187 38.2627 47.1457 42.4117L45.9804 44.0005L44.7143 45.655C44.4949 45.9363 44.2713 46.2203 44.0435 46.507L42.6261 48.2601C42.1369 48.8555 41.6308 49.4618 41.108 50.0791L39.489 51.9637C39.2108 52.2833 38.9283 52.6057 38.6417 52.9307L36.8715 54.9141L35.0004 56.9631L33.0285 59.078C32.6915 59.4359 32.3503 59.7966 32.0048 60.16L29.984 58.0145C29.6556 57.6623 29.3314 57.313 29.0113 56.9663L27.1415 54.9194L25.3724 52.9382L23.7039 51.0228L22.136 49.1731L20.6688 47.3892C20.1965 46.8055 19.741 46.2328 19.3023 45.671L18.0364 44.0186C17.226 42.9389 16.4828 41.9031 15.8066 40.9111L14.8427 39.456C13.0156 36.6115 11.7923 34.1615 11.173 32.1061C10.5663 30.0922 10.24 27.9555 10.24 25.7423C10.24 13.6462 19.9852 3.84003 32.0048 3.84003Z" fill="#CC0000"/>
<path fill-rule="evenodd" clip-rule="evenodd" d="M32.0004 10.1786C23.2619 10.1786 16.1777 17.2623 16.1777 26.0007C16.1777 34.7392 23.2619 41.8231 32.0004 41.8231C40.7384 41.8231 47.8222 34.7392 47.8222 26.0007C47.8222 17.2623 40.7384 10.1786 32.0004 10.1786ZM32 36.5482C26.1741 36.5482 21.4518 31.8253 21.4518 25.9999C21.4518 20.1744 26.1741 15.4519 32 15.4519C37.8256 15.4519 42.5481 20.1744 42.5481 25.9999C42.5481 31.8253 37.8256 36.5482 32 36.5482ZM32 31.2741C34.9127 31.2741 37.274 28.9128 37.274 26C37.274 23.0872 34.9127 20.726 32 20.726C29.0872 20.726 26.7259 23.0872 26.7259 26C26.7259 28.9128 29.0872 31.2741 32 31.2741Z" fill="white"/>
</svg>
