<svg xmlns="http://www.w3.org/2000/svg" viewBox="0 0 32 32" id="Registry"><path fill="#C00" d="M28.67 9.33v4h-1.34V28H4.67V13.33H3.33v-4z"/><path fill="#840000" d="M27.33 15.33v-2H4.67v2zM17.6 7.3a31 31 0 0 1 1.65-2.03c.37-.41.94-.62 1.45-.53a1 1 0 0 1 .8.64c.18.44.15.93-.08 1.32a1.1 1.1 0 0 1-.78.57q-.37.04-.85.03zm-5 0h-.4q-.46 0-.84-.03a1.1 1.1 0 0 1-.78-.57 1.5 1.5 0 0 1-.09-1.32 1 1 0 0 1 .8-.64c.52-.09 1.09.12 1.46.53A32 32 0 0 1 14.4 7.3zm7.19 2.04c1.46 0 2.65-.32 3.4-1.62a3.6 3.6 0 0 0 .21-3.1 3 3 0 0 0-2.34-1.9 3.7 3.7 0 0 0-3.34 1.18A33 33 0 0 0 16 6.01a33 33 0 0 0-1.73-2.12 3.7 3.7 0 0 0-3.33-1.17A3 3 0 0 0 8.6 4.6a3.6 3.6 0 0 0 .21 3.1c.75 1.3 1.95 1.62 3.4 1.62z"/><path fill="#fff" d="M16 22a1.33 1.33 0 1 0 0-2.67A1.33 1.33 0 0 0 16 22"/><path fill="#fff" d="M20 20.67a4 4 0 1 1-8 0 4 4 0 0 1 8 0m-1.33 0a2.67 2.67 0 1 0-5.34 0 2.67 2.67 0 0 0 5.34 0"/></svg>