<svg xmlns="http://www.w3.org/2000/svg" viewBox="0 0 160 32" id="FilledStars"><path fill="currentColor" d="M20.33 10.78 16 2l-4.33 8.78L2 12.18l7 6.84-1.65 9.65L16 24.1l8.65 4.56L23 19.02l7-6.83zm32 0L48 2l-4.33 8.78-9.67 1.4 7 6.84-1.65 9.65L48 24.1l8.65 4.56L55 19.02l7-6.83zm32 0L80 2l-4.33 8.78-9.67 1.4 7 6.84-1.65 9.65L80 24.1l8.65 4.56L87 19.02l7-6.83zm32 0L112 2l-4.33 8.78-9.67 1.4 7 6.84-1.65 9.65L112 24.1l8.65 4.56-1.65-9.65 7-6.83zm32 0L144 2l-4.33 8.78-9.67 1.4 7 6.84-1.65 9.65L144 24.1l8.65 4.56-1.65-9.65 7-6.83z"/></svg>