<svg xmlns="http://www.w3.org/2000/svg" viewBox="0 0 160 32" id="EmptyStars"><path fill="currentColor" d="m30 12.19-9.67-1.41L16 2l-4.33 8.78L2 12.18l7 6.84-1.65 9.65L16 24.1l8.65 4.56L23 19.02zm-11 .42 6.7.97-4.85 4.74L22 25.01l-6-3.16-6 3.16 1.15-6.69-4.86-4.74 6.71-.97 3-6.09zm43-.42-9.67-1.41L48 2l-4.33 8.78-9.67 1.4 7 6.84-1.65 9.65L48 24.1l8.65 4.56L55 19.02zm-11 .42 6.7.97-4.85 4.74L54 25.01l-6-3.16-6 3.16 1.15-6.69-4.86-4.74 6.71-.97 3-6.09zm43-.42-9.67-1.41L80 2l-4.33 8.78-9.67 1.4 7 6.84-1.65 9.65L80 24.1l8.65 4.56L87 19.02zm-11 .42 6.7.97-4.85 4.74L86 25.01l-6-3.16-6 3.16 1.15-6.69-4.86-4.74 6.71-.97 3-6.09zm43-.42-9.67-1.41L112 2l-4.33 8.78-9.67 1.4 7 6.84-1.65 9.65L112 24.1l8.65 4.56-1.65-9.65zm-11 .42 6.7.97-4.85 4.74 1.15 6.69-6-3.16-6 3.16 1.15-6.69-4.86-4.74 6.71-.97 3-6.09zm43-.42-9.67-1.41L144 2l-4.33 8.78-9.67 1.4 7 6.84-1.65 9.65L144 24.1l8.65 4.56-1.65-9.65zm-11 .42 6.7.97-4.85 4.74 1.15 6.69-6-3.16-6 3.16 1.15-6.69-4.86-4.74 6.71-.97 3-6.09z"/></svg>