<svg xmlns="http://www.w3.org/2000/svg" viewBox="0 0 24 24" id="pickup-sm"><path fill="#840000" d="M8.5 2.5 10.25.75h3.5L15.5 2.5z"/><path fill="#C00" d="M8.5 4V2.5L10.25.75V4h3.5V.75L15.5 2.5V4H20v18H4V4z"/><path fill="#fff" d="M12 10.67a1.17 1.17 0 1 0 0-2.34 1.17 1.17 0 0 0 0 2.33"/><path fill="#fff" d="M15.5 9.5a3.5 3.5 0 1 0-7 0 3.5 3.5 0 0 0 7 0m-1.17 0a2.33 2.33 0 1 1-4.66 0 2.33 2.33 0 0 1 4.66 0"/><path fill="#D6D6D6" d="M16 16v1H8v-1s1.5-1 4-1 4 1 4 1m-4.5 2v4H8v-4zm4.5 4v-4h-3.5v4z"/><path fill="#840000" d="M12 14.5c-2.58 0-4 .94-4 .94v.65s1.42-.94 4-.94 4 .93 4 .93v-.65s-1.42-.93-4-.93"/></svg>