<svg xmlns="http://www.w3.org/2000/svg" viewBox="0 0 32 32" id="DriveUp"><path fill="#333" d="M11 24.67H5.67v2.81l.01.01c.06.66 1.22 1.18 2.66 1.18s2.6-.53 2.65-1.18l.01-.01zm15.33 2.81v-2.81H21v2.81c.06.66 1.22 1.19 2.66 1.19s2.6-.52 2.66-1.18z"/><path fill="#C00" d="M25.33 5.07c-4.17-2.31-14.48-2.32-18.66 0l.2.38c.36.63 1.11.9 1.8.67 3.85-1.34 10.78-1.35 14.66 0a1.5 1.5 0 0 0 1.8-.68z"/><path fill="#C00" d="M24.7 8.25c-3.81-2.11-13.58-2.11-17.4 0L6.1 12H2.67v1c0 1.33 1.4 1.67 2.33 1.67-1.37 3.26-.96 8.9.67 10h20.66c1.48-1.1 2.04-6.73.67-10 .93 0 2.33-.34 2.33-1.67v-1H25.9z"/><path fill="#fff" d="M9.33 9.96c-1.33 3.37-2 8.7-.66 12.37h14.66c1.34-3.66.67-9-.66-12.37-2.57-1.26-10.86-1.3-13.34 0"/><path fill="#840000" d="M7.02 17.13a.43.43 0 0 0-.65-.4c-1.04.65-1.73 4.33.09 4.83a.56.56 0 0 0 .7-.63c-.21-1.32-.2-2.6-.16-3.44zm18.61-.4a.43.43 0 0 0-.65.4c.06.81.1 2.27-.13 3.8-.07.4.3.73.7.63 1.8-.5 1.12-4.18.08-4.83"/><path fill="#333" d="M13.33 10c-.97 0-1.8.6-2.15 1.44l-1.18.23A24 24 0 0 0 9.63 21h12.74c.5-2.97.35-6.5-.37-9.33l-1.18-.23a2.33 2.33 0 0 0-4.08-.43h-1.49A2.3 2.3 0 0 0 13.33 10"/><path fill="#fff" d="M16 17.33a1.33 1.33 0 1 0 0-2.67 1.33 1.33 0 0 0 0 2.67"/><path fill="#fff" d="M20 16a4 4 0 1 1-8 0 4 4 0 0 1 8 0m-1.33 0a2.67 2.67 0 1 0-5.34 0 2.67 2.67 0 0 0 5.34 0"/></svg>